<svg width="65" height="63" viewBox="0 0 65 63" fill="none" xmlns="http://www.w3.org/2000/svg">
<rect width="65" height="63" rx="5" fill="black"/>
<path d="M29.2106 44H7.81063V16.16H18.6506C20.9706 16.16 22.864 16.5733 24.3306 17.4C25.7706 18.2 26.8906 19.2933 27.6906 20.68C28.4906 22.0667 28.8906 23.6 28.8906 25.28C28.8906 27.36 28.2506 29.2267 26.9706 30.88C25.6906 32.5067 24.0773 33.5867 22.1306 34.12L29.2106 44ZM10.3306 17.64L21.2106 32.84C22.9973 32.4667 24.4773 31.5733 25.6506 30.16C26.824 28.7467 27.4106 27.12 27.4106 25.28C27.4106 23.8133 27.0506 22.48 26.3306 21.28C25.6106 20.08 24.5973 19.16 23.2906 18.52C22.1173 17.9333 20.584 17.64 18.6906 17.64H10.3306ZM9.29063 18.6V32.96H19.5706L9.29063 18.6ZM9.29063 42.52H26.4106L20.5706 34.4L19.3306 34.44H9.29063V42.52ZM37.74 33.36C37.74 35.12 38.18 36.7467 39.06 38.24C39.9667 39.7333 41.1667 40.92 42.66 41.8C44.18 42.68 45.82 43.12 47.58 43.12C49.3933 43.12 51.0333 42.76 52.5 42.04C53.9667 41.32 55.1133 40.32 55.94 39.04C56.7933 37.76 57.2333 36.32 57.26 34.72H58.7C58.7 36.56 58.2067 38.24 57.22 39.76C56.26 41.2533 54.9267 42.44 53.22 43.32C51.54 44.1733 49.66 44.6 47.58 44.6C45.5533 44.6 43.6733 44.0933 41.94 43.08C40.2067 42.0667 38.8333 40.7067 37.82 39C36.8067 37.2667 36.3 35.3867 36.3 33.36V26.8C36.3 24.7733 36.7933 22.9067 37.78 21.2C38.7933 19.4667 40.1533 18.0933 41.86 17.08C43.5933 16.0667 45.4733 15.56 47.5 15.56C49.5533 15.56 51.42 16 53.1 16.88C54.8067 17.7333 56.1533 18.92 57.14 20.44C58.1267 21.9333 58.62 23.6 58.62 25.44H57.18C57.1533 23.84 56.7133 22.4 55.86 21.12C55.0067 19.84 53.8467 18.84 52.38 18.12C50.94 17.4 49.3133 17.04 47.5 17.04C45.74 17.04 44.1133 17.48 42.62 18.36C41.1267 19.24 39.94 20.4267 39.06 21.92C38.18 23.4133 37.74 25.04 37.74 26.8V33.36Z" fill="white"/>
<path d="M29.2106 44V45H31.1575L30.0235 43.4175L29.2106 44ZM7.81063 44H6.81063V45H7.81063V44ZM7.81063 16.16V15.16H6.81063V16.16H7.81063ZM24.3306 17.4L23.8396 18.2712L23.845 18.2742L24.3306 17.4ZM27.6906 20.68L26.8244 21.1797L26.8244 21.1797L27.6906 20.68ZM26.9706 30.88L27.7565 31.4984L27.7614 31.4922L26.9706 30.88ZM22.1306 34.12L21.8664 33.1555L20.4812 33.535L21.3178 34.7025L22.1306 34.12ZM10.3306 17.64V16.64H8.38506L9.51747 18.222L10.3306 17.64ZM21.2106 32.84L20.3975 33.422L20.777 33.9522L21.4152 33.8189L21.2106 32.84ZM25.6506 30.16L24.8812 29.5212L24.8812 29.5212L25.6506 30.16ZM23.2906 18.52L22.8434 19.4145L22.8508 19.4181L23.2906 18.52ZM9.29063 18.6L10.1037 18.0179L8.29063 15.4852V18.6H9.29063ZM9.29063 32.96H8.29063V33.96H9.29063V32.96ZM19.5706 32.96V33.96H21.5163L20.3837 32.3779L19.5706 32.96ZM9.29063 42.52H8.29063V43.52H9.29063V42.52ZM26.4106 42.52V43.52H28.3616L27.2225 41.9361L26.4106 42.52ZM20.5706 34.4L21.3825 33.8161L21.0712 33.3833L20.5384 33.4005L20.5706 34.4ZM19.3306 34.44V35.44H19.3468L19.3629 35.4395L19.3306 34.44ZM9.29063 34.44V33.44H8.29063V34.44H9.29063ZM29.2106 43H7.81063V45H29.2106V43ZM8.81063 44V16.16H6.81063V44H8.81063ZM7.81063 17.16H18.6506V15.16H7.81063V17.16ZM18.6506 17.16C20.8606 17.16 22.5689 17.5549 23.8396 18.2712L24.8216 16.5288C23.159 15.5917 21.0806 15.16 18.6506 15.16V17.16ZM23.845 18.2742C25.1314 18.9888 26.1177 19.9548 26.8244 21.1797L28.5568 20.1803C27.6635 18.6319 26.4099 17.4112 24.8163 16.5258L23.845 18.2742ZM26.8244 21.1797C27.5324 22.4068 27.8906 23.7664 27.8906 25.28H29.8906C29.8906 23.4336 29.4489 21.7265 28.5568 20.1803L26.8244 21.1797ZM27.8906 25.28C27.8906 27.1371 27.325 28.7887 26.1799 30.2678L27.7614 31.4922C29.1762 29.6646 29.8906 27.5829 29.8906 25.28H27.8906ZM26.1848 30.2616C25.0335 31.7247 23.601 32.6803 21.8664 33.1555L22.3949 35.0845C24.5535 34.493 26.3478 33.2887 27.7565 31.4984L26.1848 30.2616ZM21.3178 34.7025L28.3978 44.5825L30.0235 43.4175L22.9435 33.5375L21.3178 34.7025ZM9.51747 18.222L20.3975 33.422L22.0238 32.258L11.1438 17.058L9.51747 18.222ZM21.4152 33.8189C23.4247 33.399 25.1033 32.3848 26.42 30.7988L24.8812 29.5212C23.8513 30.7618 22.5699 31.5344 21.0061 31.8611L21.4152 33.8189ZM26.42 30.7988C27.7427 29.2056 28.4106 27.3529 28.4106 25.28H26.4106C26.4106 26.8871 25.9053 28.2877 24.8812 29.5212L26.42 30.7988ZM28.4106 25.28C28.4106 23.6412 28.0059 22.1285 27.1881 20.7655L25.4731 21.7945C26.0953 22.8315 26.4106 23.9855 26.4106 25.28H28.4106ZM27.1881 20.7655C26.3648 19.3932 25.2032 18.3433 23.7305 17.6219L22.8508 19.4181C23.9914 19.9767 24.8565 20.7668 25.4731 21.7945L27.1881 20.7655ZM23.7378 17.6256C22.378 16.9456 20.6753 16.64 18.6906 16.64V18.64C20.4927 18.64 21.8566 18.921 22.8434 19.4144L23.7378 17.6256ZM18.6906 16.64H10.3306V18.64H18.6906V16.64ZM8.29063 18.6V32.96H10.2906V18.6H8.29063ZM9.29063 33.96H19.5706V31.96H9.29063V33.96ZM20.3837 32.3779L10.1037 18.0179L8.4775 19.1821L18.7575 33.5421L20.3837 32.3779ZM9.29063 43.52H26.4106V41.52H9.29063V43.52ZM27.2225 41.9361L21.3825 33.8161L19.7588 34.9839L25.5988 43.1039L27.2225 41.9361ZM20.5384 33.4005L19.2984 33.4405L19.3629 35.4395L20.6029 35.3995L20.5384 33.4005ZM19.3306 33.44H9.29063V35.44H19.3306V33.44ZM8.29063 34.44V42.52H10.2906V34.44H8.29063ZM39.06 38.24L38.1984 38.7477L38.2052 38.759L39.06 38.24ZM42.66 41.8L42.1523 42.6616L42.159 42.6654L42.66 41.8ZM52.5 42.04L52.0593 41.1423L52.0593 41.1423L52.5 42.04ZM55.94 39.04L55.108 38.4853L55.1039 38.4914L55.1 38.4975L55.94 39.04ZM57.26 34.72V33.72H56.2765L56.2601 34.7033L57.26 34.72ZM58.7 34.72H59.7V33.72H58.7V34.72ZM57.22 39.76L56.3812 39.2155L56.3788 39.2192L57.22 39.76ZM53.22 43.32L53.6729 44.2116L53.6783 44.2088L53.22 43.32ZM37.82 39L36.9567 39.5047L36.9601 39.5105L37.82 39ZM37.78 21.2L36.9167 20.6953L36.9143 20.6995L37.78 21.2ZM41.86 17.08L41.3553 16.2167L41.3495 16.2201L41.86 17.08ZM53.1 16.88L52.636 17.7658L52.6444 17.7702L52.6528 17.7744L53.1 16.88ZM57.14 20.44L56.3012 20.9845L56.3057 20.9913L57.14 20.44ZM58.62 25.44V26.44H59.62V25.44H58.62ZM57.18 25.44L56.1801 25.4567L56.1965 26.44H57.18V25.44ZM52.38 18.12L51.9328 19.0145L51.9393 19.0177L52.38 18.12ZM42.62 18.36L43.1277 19.2215L43.1277 19.2215L42.62 18.36ZM39.06 21.92L38.1985 21.4123L38.1985 21.4123L39.06 21.92ZM36.74 33.36C36.74 35.2957 37.2264 37.0981 38.1985 38.7477L39.9215 37.7323C39.1336 36.3953 38.74 34.9443 38.74 33.36H36.74ZM38.2052 38.759C39.1968 40.3922 40.5156 41.6971 42.1523 42.6615L43.1677 40.9385C41.8177 40.1429 40.7365 39.0744 39.9148 37.721L38.2052 38.759ZM42.159 42.6654C43.8316 43.6338 45.6444 44.12 47.58 44.12V42.12C45.9956 42.12 44.5284 41.7262 43.161 40.9346L42.159 42.6654ZM47.58 44.12C49.5291 44.12 51.3224 43.7321 52.9407 42.9377L52.0593 41.1423C50.7443 41.7879 49.2575 42.12 47.58 42.12V44.12ZM52.9407 42.9377C54.558 42.1437 55.8478 41.026 56.78 39.5825L55.1 38.4975C54.3789 39.614 53.3753 40.4963 52.0593 41.1423L52.9407 42.9377ZM56.7721 39.5947C57.7362 38.1485 58.2301 36.5203 58.2599 34.7367L56.2601 34.7033C56.2365 36.1197 55.8505 37.3715 55.108 38.4853L56.7721 39.5947ZM57.26 35.72H58.7V33.72H57.26V35.72ZM57.7 34.72C57.7 36.3699 57.261 37.8603 56.3812 39.2155L58.0588 40.3045C59.1524 38.6197 59.7 36.7501 59.7 34.72H57.7ZM56.3788 39.2192C55.5214 40.553 54.3256 41.6248 52.7617 42.4312L53.6783 44.2088C55.5278 43.2552 56.9986 41.9536 58.0612 40.3008L56.3788 39.2192ZM52.7671 42.4284C51.2415 43.2033 49.5192 43.6 47.58 43.6V45.6C49.8008 45.6 51.8385 45.1433 53.6729 44.2116L52.7671 42.4284ZM47.58 43.6C45.729 43.6 44.0234 43.1396 42.4447 42.2167L41.4353 43.9433C43.3233 45.047 45.3777 45.6 47.58 45.6V43.6ZM42.4447 42.2167C40.856 41.2879 39.6056 40.0486 38.6799 38.4895L36.9601 39.5105C38.0611 41.3648 39.5574 42.8454 41.4353 43.9433L42.4447 42.2167ZM38.6833 38.4953C37.7604 36.9166 37.3 35.211 37.3 33.36H35.3C35.3 35.5623 35.853 37.6167 36.9567 39.5047L38.6833 38.4953ZM37.3 33.36V26.8H35.3V33.36H37.3ZM37.3 26.8C37.3 24.9439 37.7496 23.2506 38.6457 21.7005L36.9143 20.6995C35.8371 22.5627 35.3 24.6028 35.3 26.8H37.3ZM38.6433 21.7047C39.5721 20.116 40.8114 18.8656 42.3705 17.9399L41.3495 16.2201C39.4952 17.3211 38.0146 18.8174 36.9167 20.6953L38.6433 21.7047ZM42.3647 17.9433C43.9434 17.0204 45.649 16.56 47.5 16.56V14.56C45.2977 14.56 43.2433 15.113 41.3553 16.2167L42.3647 17.9433ZM47.5 16.56C49.4054 16.56 51.1108 16.9669 52.636 17.7658L53.564 15.9942C51.7292 15.0331 49.7013 14.56 47.5 14.56V16.56ZM52.6528 17.7744C54.2089 18.5525 55.4168 19.622 56.3012 20.9845L57.9788 19.8955C56.8899 18.218 55.4045 16.9142 53.5472 15.9856L52.6528 17.7744ZM56.3057 20.9913C57.1811 22.3163 57.62 23.7902 57.62 25.44H59.62C59.62 23.4098 59.0722 21.5504 57.9743 19.8887L56.3057 20.9913ZM58.62 24.44H57.18V26.44H58.62V24.44ZM58.1799 25.4233C58.1501 23.6397 57.6562 22.0115 56.6921 20.5653L55.028 21.6747C55.7705 22.7885 56.1565 24.0403 56.1801 25.4567L58.1799 25.4233ZM56.6921 20.5653C55.7347 19.1293 54.4356 18.0151 52.8207 17.2223L51.9393 19.0177C53.2578 19.6649 54.2786 20.5507 55.028 21.6747L56.6921 20.5653ZM52.8272 17.2256C51.2317 16.4278 49.4488 16.04 47.5 16.04V18.04C49.1779 18.04 50.6483 18.3722 51.9328 19.0144L52.8272 17.2256ZM47.5 16.04C45.5643 16.04 43.7619 16.5264 42.1123 17.4985L43.1277 19.2215C44.4647 18.4336 45.9157 18.04 47.5 18.04V16.04ZM42.1123 17.4985C40.4729 18.4645 39.1645 19.7729 38.1985 21.4123L39.9215 22.4277C40.7155 21.0804 41.7804 20.0155 43.1277 19.2215L42.1123 17.4985ZM38.1985 21.4123C37.2264 23.0619 36.74 24.8643 36.74 26.8H38.74C38.74 25.2157 39.1336 23.7647 39.9215 22.4277L38.1985 21.4123ZM36.74 26.8V33.36H38.74V26.8H36.74Z" fill="white"/>
</svg>
